<svg width="80" height="80" viewBox="0 0 80 80" fill="none" xmlns="http://www.w3.org/2000/svg">
<path d="M55.924 42.455L51.922 27.449C51.68 26.596 50.889 26 50 26H30C29.11 26 28.32 26.596 28.078 27.449L24.076 42.455C24.025 42.637 24 42.82 24 43V50C24 52.209 25.791 54 28 54H52C54.209 54 56 52.209 56 50V43C56 42.82 55.975 42.637 55.924 42.455ZM54 50C54 51.102 53.102 52 52 52H28C26.897 52 26 51.102 26 50V43L30.001 27.999H49.998L54 43V50ZM47.742 30H32.258C31.805 30 31.408 30.305 31.291 30.743L27.846 42.743C27.767 43.044 27.83 43.364 28.02 43.61C28.21 43.856 28.502 44 28.812 44H33.38L34.827 46.895C35.167 47.572 35.859 48 36.617 48H43.383C44.141 48 44.832 47.572 45.172 46.895L46.619 44H51.187C51.498 44 51.791 43.855 51.98 43.609C52.169 43.363 52.232 43.043 52.154 42.742L48.709 30.742C48.592 30.304 48.195 30 47.742 30ZM48.281 42H46.619C45.857 42 45.172 42.422 44.83 43.105L43.383 46H36.617L35.17 43.105C34.828 42.422 34.143 42 33.381 42H29.334L32.258 31H47.742L50.666 42H48.281Z" fill="#BDBDBD"/>
</svg>
