<svg width="80" height="80" viewBox="0 0 80 80" fill="none" xmlns="http://www.w3.org/2000/svg">
<g clip-path="url(#clip0_16_498)">
<path d="M56 32C56 30.594 55.043 29.392 53.674 29.076L40.661 26.073C40.443 26.024 40.221 26 40 26C39.779 26 39.557 26.024 39.325 26.076L26.326 29.076C24.956 29.392 24 30.594 24 32C24 33.406 24.957 34.608 26.325 34.924L29 35.541V44C29 46.654 32.038 49 40 49C47.962 49 51 46.654 51 44V35.541L53.674 34.924C55.043 34.608 56 33.406 56 32ZM49 44C49 45.105 46 47 40 47C34 47 31 45.105 31 44V36.003L39.338 37.927C39.556 37.976 39.779 38 40 38C40.221 38 40.444 37.976 40.674 37.924L49 36.003V44ZM40.225 35.975C40.15 35.991 40.075 36 40 36C39.925 36 39.849 35.991 39.775 35.975L26.775 32.975C26.321 32.87 26 32.466 26 32C26 31.534 26.321 31.13 26.775 31.025L39.775 28.025C39.849 28.009 39.924 28 40 28C40.076 28 40.151 28.009 40.225 28.025L53.225 31.025C53.678 31.13 54 31.534 54 32C54 32.466 53.678 32.87 53.225 32.975L40.225 35.975ZM53 37C53 36.447 53.447 36 54 36C54.552 36 55 36.447 55 37V46C55 46.553 54.552 47 54 47C53.447 47 53 46.553 53 46V37ZM54 48C55.104 48 56 50.896 56 52C56 53.104 55.104 54 54 54C52.895 54 52 53.104 52 52C52 50.896 52.895 48 54 48Z" fill="#BDBDBD"/>
</g>
<defs>
<clipPath id="clip0_16_498">
<rect width="32" height="32" fill="white" transform="translate(24 24)"/>
</clipPath>
</defs>
</svg>
