<svg width="80" height="80" viewBox="0 0 80 80" fill="none" xmlns="http://www.w3.org/2000/svg">
<path d="M40.002 41.746C43.311 41.746 46.002 39.054 46.002 35.746C46.002 32.438 43.311 29.746 40.002 29.746C36.693 29.746 34.002 32.437 34.002 35.746C34.002 39.055 36.693 41.746 40.002 41.746ZM40.002 30.746C42.76 30.746 45.002 32.988 45.002 35.746C45.002 38.504 42.76 40.746 40.002 40.746C37.244 40.746 35.002 38.504 35.002 35.746C35.002 32.988 37.244 30.746 40.002 30.746ZM40 24C33.382 24 28 29.316 28 36.001C28 43.001 34.001 50.162 38.376 55.195C38.392 55.215 39.094 56 39.962 56C39.964 56 40.035 56 40.039 56C40.906 56 41.609 55.215 41.625 55.195C46.002 50.162 52.002 43.002 52.002 36.001C52.002 29.316 46.619 24 40 24V24ZM40.117 53.883C40.096 53.903 40.035 53.947 39.982 53.981C39.972 53.954 39.898 53.895 39.853 53.848C36.188 49.631 30 42.514 30 36.001C30 30.487 34.487 26 40 26C45.516 26 50.002 30.487 50.002 36.002C50.002 42.514 43.814 49.631 40.117 53.883Z" fill="#BDBDBD"/>
</svg>
