<svg width="80" height="80" viewBox="0 0 80 80" fill="none" xmlns="http://www.w3.org/2000/svg">
<path d="M53 24H31C29.343 24 28 25.342 28 27V29H27C25.343 29 24 30.342 24 32V52C24 54.209 25.791 56 28 56H52C54.209 56 56 54.209 56 52V27C56 25.342 54.656 24 53 24ZM54 52C54 53.102 53.102 54 52 54H28C26.897 54 26 53.102 26 52V32C26 31.448 26.448 31 27 31H28V51C28 51.553 28.447 52 29 52C29.553 52 30 51.553 30 51V27C30 26.448 30.448 26 31 26H53C53.551 26 54 26.448 54 27V52ZM43.498 37.005C43.223 37.005 42.998 36.781 42.998 36.505C42.998 36.229 43.223 36.005 43.498 36.005H51.498C51.775 36.005 51.998 36.229 51.998 36.505C51.998 36.781 51.775 37.005 51.498 37.005H43.498ZM43.498 34.005C43.223 34.005 42.998 33.781 42.998 33.505C42.998 33.229 43.223 33.005 43.498 33.005H51.498C51.775 33.005 51.998 33.229 51.998 33.505C51.998 33.781 51.775 34.005 51.498 34.005H43.498ZM43.498 31.005C43.223 31.005 42.998 30.781 42.998 30.505C42.998 30.229 43.223 30.005 43.498 30.005H51.498C51.775 30.005 51.998 30.229 51.998 30.505C51.998 30.781 51.775 31.005 51.498 31.005H43.498ZM40.5 51.004C40.776 51.004 41 51.229 41 51.504C41 51.781 40.775 52.004 40.5 52.004H32.5C32.224 52.004 32 51.781 32 51.504C32 51.229 32.224 51.004 32.5 51.004H40.5ZM40.5 48.004C40.776 48.004 41 48.229 41 48.504C41 48.781 40.775 49.004 40.5 49.004H32.5C32.224 49.004 32 48.781 32 48.504C32 48.229 32.224 48.004 32.5 48.004H40.5ZM40.5 45.004C40.776 45.004 41 45.229 41 45.504C41 45.781 40.775 46.004 40.5 46.004H32.5C32.224 46.004 32 45.781 32 45.504C32 45.229 32.224 45.004 32.5 45.004H40.5ZM51.5 51.004C51.775 51.004 52 51.229 52 51.504C52 51.781 51.775 52.004 51.5 52.004H43.5C43.223 52.004 43 51.781 43 51.504C43 51.229 43.223 51.004 43.5 51.004H51.5ZM51.5 48.004C51.775 48.004 52 48.229 52 48.504C52 48.781 51.775 49.004 51.5 49.004H43.5C43.223 49.004 43 48.781 43 48.504C43 48.229 43.223 48.004 43.5 48.004H51.5ZM51.5 45.004C51.775 45.004 52 45.229 52 45.504C52 45.781 51.775 46.004 51.5 46.004H43.5C43.223 46.004 43 45.781 43 45.504C43 45.229 43.223 45.004 43.5 45.004H51.5ZM51.5 39.004C51.775 39.004 52 39.228 52 39.504C52 39.78 51.775 40.004 51.5 40.004H32.5C32.224 40.004 32 39.78 32 39.504C32 39.228 32.224 39.004 32.5 39.004H51.5ZM51.5 42.004C51.775 42.004 52 42.229 52 42.504C52 42.781 51.775 43.004 51.5 43.004H32.5C32.224 43.004 32 42.781 32 42.504C32 42.229 32.224 42.004 32.5 42.004H51.5ZM33 37H40C40.553 37 41 36.553 41 36V29.004C41 28.451 40.553 28.004 40 28.004H33C32.447 28.004 32 28.451 32 29.004V36C32 36.552 32.447 37 33 37ZM34 30H39V35H34V30Z" fill="#BDBDBD"/>
</svg>
